{
    "asset" : {
        "generator" : "Khronos glTF Blender I/O v3.4.26",
        "version" : "2.0"
    },
    "scene" : 0,
    "scenes" : [
        {
            "name" : "Scene",
            "nodes" : [
                0,
                1,
                2
            ]
        }
    ],
    "nodes" : [
        {
            "mesh" : 0,
            "name" : "ground",
            "scale" : [
                3,
                0.06059548258781433,
                3
            ],
            "translation" : [
                0,
                -2.6432137489318848,
                0
            ]
        },
        {
            "mesh" : 1,
            "name" : "wall",
            "scale" : [
                2.3923633098602295,
                2.3923633098602295,
                2.3923633098602295
            ],
            "translation" : [
                0,
                -2.469960927963257,
                0
            ]
        },
        {
            "mesh" : 2,
            "name" : "tube",
            "scale" : [
                0.5534769892692566,
                1,
                0.3832370936870575
            ],
            "translation" : [
                0,
                4.231113910675049,
                -0.9562507271766663
            ]
        }
    ],
    "meshes" : [
        {
            "name" : "ground",
            "primitives" : [
                {
                    "attributes" : {
                        "POSITION" : 0,
                        "TEXCOORD_0" : 1,
                        "NORMAL" : 2
                    },
                    "indices" : 3
                }
            ]
        },
        {
            "name" : "wall",
            "primitives" : [
                {
                    "attributes" : {
                        "POSITION" : 4,
                        "TEXCOORD_0" : 5,
                        "NORMAL" : 6
                    },
                    "indices" : 7
                }
            ]
        },
        {
            "name" : "tube",
            "primitives" : [
                {
                    "attributes" : {
                        "POSITION" : 8,
                        "TEXCOORD_0" : 9,
                        "NORMAL" : 10
                    },
                    "indices" : 11
                }
            ]
        }
    ],
    "accessors" : [
        {
            "bufferView" : 0,
            "componentType" : 5126,
            "count" : 100,
            "max" : [
                1,
                105.01329040527344,
                1
            ],
            "min" : [
                -1,
                0,
                -1
            ],
            "type" : "VEC3"
        },
        {
            "bufferView" : 1,
            "componentType" : 5126,
            "count" : 100,
            "type" : "VEC2"
        },
        {
            "bufferView" : 2,
            "componentType" : 5126,
            "count" : 100,
            "type" : "VEC3"
        },
        {
            "bufferView" : 3,
            "componentType" : 5123,
            "count" : 204,
            "type" : "SCALAR"
        },
        {
            "bufferView" : 4,
            "componentType" : 5126,
            "count" : 926,
            "max" : [
                1.0726922750473022,
                2.7190611362457275,
                1.0810247659683228
            ],
            "min" : [
                -1.0966739654541016,
                0,
                -1.0571223497390747
            ],
            "type" : "VEC3"
        },
        {
            "bufferView" : 5,
            "componentType" : 5126,
            "count" : 926,
            "type" : "VEC2"
        },
        {
            "bufferView" : 6,
            "componentType" : 5126,
            "count" : 926,
            "type" : "VEC3"
        },
        {
            "bufferView" : 7,
            "componentType" : 5123,
            "count" : 1932,
            "type" : "SCALAR"
        },
        {
            "bufferView" : 8,
            "componentType" : 5126,
            "count" : 56,
            "max" : [
                1.1934481859207153,
                1.0289287567138672,
                1.1934481859207153
            ],
            "min" : [
                -1.1934481859207153,
                -1,
                -1.1934481859207153
            ],
            "type" : "VEC3"
        },
        {
            "bufferView" : 9,
            "componentType" : 5126,
            "count" : 56,
            "type" : "VEC2"
        },
        {
            "bufferView" : 10,
            "componentType" : 5126,
            "count" : 56,
            "type" : "VEC3"
        },
        {
            "bufferView" : 11,
            "componentType" : 5123,
            "count" : 84,
            "type" : "SCALAR"
        }
    ],
    "bufferViews" : [
        {
            "buffer" : 0,
            "byteLength" : 1200,
            "byteOffset" : 0,
            "target" : 34962
        },
        {
            "buffer" : 0,
            "byteLength" : 800,
            "byteOffset" : 1200,
            "target" : 34962
        },
        {
            "buffer" : 0,
            "byteLength" : 1200,
            "byteOffset" : 2000,
            "target" : 34962
        },
        {
            "buffer" : 0,
            "byteLength" : 408,
            "byteOffset" : 3200,
            "target" : 34963
        },
        {
            "buffer" : 0,
            "byteLength" : 11112,
            "byteOffset" : 3608,
            "target" : 34962
        },
        {
            "buffer" : 0,
            "byteLength" : 7408,
            "byteOffset" : 14720,
            "target" : 34962
        },
        {
            "buffer" : 0,
            "byteLength" : 11112,
            "byteOffset" : 22128,
            "target" : 34962
        },
        {
            "buffer" : 0,
            "byteLength" : 3864,
            "byteOffset" : 33240,
            "target" : 34963
        },
        {
            "buffer" : 0,
            "byteLength" : 672,
            "byteOffset" : 37104,
            "target" : 34962
        },
        {
            "buffer" : 0,
            "byteLength" : 448,
            "byteOffset" : 37776,
            "target" : 34962
        },
        {
            "buffer" : 0,
            "byteLength" : 672,
            "byteOffset" : 38224,
            "target" : 34962
        },
        {
            "buffer" : 0,
            "byteLength" : 168,
            "byteOffset" : 38896,
            "target" : 34963
        }
    ],
    "buffers" : [
        {
            "byteLength" : 39064,
            "uri" : "data:application/octet-stream;base64,"
        }
    ]
}
